<?xml version="1.0" standalone="no"?>
<!DOCTYPE svg PUBLIC "-//W3C//DTD SVG 20010904//EN"
 "http://www.w3.org/TR/2001/REC-SVG-20010904/DTD/svg10.dtd">
<svg version="1.0" xmlns="http://www.w3.org/2000/svg"
 width="512.000000pt" height="512.000000pt" viewBox="0 0 512.000000 512.000000"
 preserveAspectRatio="xMidYMid meet">

<g transform="translate(0.000000,512.000000) scale(0.100000,-0.100000)"
fill="#000000" stroke="none">
<path d="M2335 5109 c-594 -51 -1146 -310 -1576 -739 -207 -207 -341 -386
-465 -624 -416 -801 -385 -1756 83 -2520 202 -329 520 -647 849 -849 757 -463
1710 -499 2499 -93 233 120 420 253 609 436 932 900 1047 2342 269 3378 -527
703 -1389 1086 -2268 1011z m1055 -1339 c14 -10 112 -106 218 -213 170 -172
192 -198 192 -227 0 -28 -17 -49 -127 -161 -69 -71 -131 -129 -137 -129 -6 0
-121 110 -256 245 l-245 245 115 116 c160 161 176 169 240 124z m-293 -672
c134 -134 243 -247 243 -253 0 -6 -271 -281 -603 -613 l-602 -602 -250 250
-250 250 605 605 c333 333 607 605 610 605 3 0 114 -109 247 -242z m-1400
-1400 c134 -134 243 -248 243 -254 0 -12 -116 -124 -153 -148 -26 -17 -466
-116 -515 -116 -41 0 -92 46 -92 83 0 26 94 454 110 501 9 25 145 176 159 176
3 0 115 -109 248 -242z"/>
</g>
</svg>
