<?xml version="1.0" standalone="no"?>
<!DOCTYPE svg PUBLIC "-//W3C//DTD SVG 20010904//EN"
 "http://www.w3.org/TR/2001/REC-SVG-20010904/DTD/svg10.dtd">
<svg version="1.0" xmlns="http://www.w3.org/2000/svg"
 width="512.000000pt" height="512.000000pt" viewBox="0 0 512.000000 512.000000"
 preserveAspectRatio="xMidYMid meet">

<g transform="translate(0.000000,512.000000) scale(0.100000,-0.100000)"
fill="#000000" stroke="none">
<path d="M2088 4609 c-23 -12 -46 -35 -58 -59 -19 -38 -20 -58 -20 -630 0
-572 1 -592 20 -630 13 -26 34 -47 60 -60 37 -19 58 -20 470 -20 412 0 433 1
470 20 26 13 47 34 60 60 19 38 20 58 20 630 0 572 -1 592 -20 630 -13 26 -34
47 -60 60 -38 19 -58 20 -472 20 -411 -1 -435 -2 -470 -21z"/>
<path d="M345 3976 c-84 -21 -147 -57 -211 -121 -65 -65 -105 -136 -123 -223
-16 -76 -16 -2710 0 -2784 37 -172 175 -310 347 -347 75 -16 4328 -16 4404 0
170 36 311 178 347 347 16 76 16 2710 0 2784 -37 172 -176 311 -347 347 -36 7
-263 11 -702 11 l-650 0 0 -335 c0 -362 -4 -404 -52 -499 -58 -116 -179 -208
-306 -235 -73 -15 -912 -15 -984 0 -172 37 -310 175 -347 347 -7 34 -11 176
-11 387 l0 335 -657 -1 c-491 0 -671 -4 -708 -13z m1266 -956 c180 -34 336
-191 370 -375 21 -112 -5 -249 -64 -334 l-23 -34 71 -71 c138 -137 222 -333
255 -596 23 -189 6 -261 -70 -300 -38 -19 -58 -20 -631 -20 l-591 0 -40 22
c-78 44 -92 116 -63 328 34 253 126 457 264 582 l59 53 -24 35 c-60 87 -87
232 -65 342 29 136 128 266 251 326 99 49 193 62 301 42z m2619 -730 c45 -23
80 -80 80 -130 0 -50 -35 -107 -80 -130 -38 -19 -58 -20 -671 -20 l-631 0 -40
22 c-45 25 -78 80 -78 128 0 48 35 107 78 129 36 19 60 20 670 21 615 0 634
-1 672 -20z m0 -720 c45 -23 80 -80 80 -130 0 -50 -35 -107 -80 -130 -38 -20
-57 -20 -791 -20 l-751 0 -40 22 c-45 25 -78 80 -78 128 0 48 35 107 78 129
36 20 60 20 790 21 735 0 754 0 792 -20z"/>
<path d="M1455 2716 c-115 -52 -139 -193 -49 -278 56 -52 120 -61 188 -28 60
29 91 80 91 150 0 44 -6 65 -25 93 -45 66 -136 94 -205 63z"/>
<path d="M1435 2081 c-88 -23 -167 -86 -219 -175 -31 -53 -81 -202 -91 -268
l-6 -48 401 0 401 0 -6 48 c-10 66 -60 215 -91 268 -38 65 -102 126 -159 153
-53 25 -175 37 -230 22z"/>
</g>
</svg>
