<?xml version="1.0" standalone="no"?>
<!DOCTYPE svg PUBLIC "-//W3C//DTD SVG 20010904//EN"
 "http://www.w3.org/TR/2001/REC-SVG-20010904/DTD/svg10.dtd">
<svg version="1.0" xmlns="http://www.w3.org/2000/svg"
 width="512.000000pt" height="512.000000pt" viewBox="0 0 512.000000 512.000000"
 preserveAspectRatio="xMidYMid meet">

<g transform="translate(0.000000,512.000000) scale(0.100000,-0.100000)"
fill="#000000" stroke="none">
<path d="M518 5104 c-190 -45 -343 -196 -393 -385 -22 -81 -22 -4237 0 -4318
39 -150 141 -273 282 -345 116 -58 40 -56 1725 -56 1084 0 1563 3 1600 11 200
41 376 217 417 417 16 75 16 4189 0 4264 -41 200 -217 376 -417 417 -37 8
-515 11 -1605 10 -1288 -1 -1562 -3 -1609 -15z m3232 -225 c127 -59 186 -152
197 -306 l6 -93 -1818 0 -1817 0 4 93 c6 116 31 178 99 242 52 49 95 71 163
85 23 4 732 7 1576 7 l1535 -2 55 -26z m-3218 -2131 l3 -1523 25 -45 c14 -24
45 -58 68 -75 l44 -30 1126 -3 1126 -2 401 400 400 400 5 1197 5 1198 105 0
105 0 0 -1705 0 -1705 -1812 -3 -1813 -2 0 1710 0 1710 105 0 105 0 2 -1522z
m2988 402 l0 -1120 -265 0 c-322 0 -351 -5 -415 -70 -65 -64 -70 -93 -70 -415
l0 -265 -1010 0 -1010 0 0 1495 0 1495 1385 0 1385 0 0 -1120z m-160 -1343 c0
-1 -83 -85 -185 -187 l-185 -185 0 188 0 187 185 0 c102 0 185 -1 185 -3z
m587 -1259 c-11 -155 -70 -248 -197 -307 l-55 -26 -1555 0 c-1767 0 -1612 -8
-1714 86 -73 66 -98 127 -104 247 l-4 92 1817 0 1818 0 -6 -92z"/>
<path d="M1134 3830 c-12 -4 -31 -21 -43 -36 -21 -26 -21 -34 -21 -385 l0
-357 31 -31 31 -31 999 0 999 0 32 29 33 29 3 351 c2 301 1 355 -13 381 -33
63 23 60 -1052 59 -538 0 -988 -4 -999 -9z m1854 -417 l2 -213 -855 0 -855 0
0 215 0 215 853 -2 852 -3 3 -212z"/>
<path d="M1070 2665 l0 -105 105 0 105 0 0 105 0 105 -105 0 -105 0 0 -105z"/>
<path d="M1490 2665 l0 -105 110 0 110 0 0 105 0 105 -110 0 -110 0 0 -105z"/>
<path d="M1920 2665 l0 -105 640 0 640 0 0 105 0 105 -640 0 -640 0 0 -105z"/>
<path d="M1070 2240 l0 -110 690 0 690 0 0 110 0 110 -690 0 -690 0 0 -110z"/>
<path d="M1070 1815 l0 -105 480 0 480 0 0 105 0 105 -480 0 -480 0 0 -105z"/>
<path d="M4643 4890 c-13 -5 -75 -88 -145 -192 l-123 -183 0 -2060 c0 -1992 1
-2061 19 -2087 29 -44 69 -50 324 -46 l234 3 29 33 29 32 0 2063 0 2062 -120
179 c-65 99 -129 186 -142 193 -27 14 -73 16 -105 3z m107 -365 l50 -74 0
-1691 0 -1690 -105 0 -105 0 0 1692 0 1692 48 73 c26 40 50 73 54 73 4 0 30
-34 58 -75z m50 -3835 l0 -160 -105 0 -105 0 0 160 0 160 105 0 105 0 0 -160z"/>
</g>
</svg>
