<?xml version="1.0" standalone="no"?>
<!DOCTYPE svg PUBLIC "-//W3C//DTD SVG 20010904//EN"
 "http://www.w3.org/TR/2001/REC-SVG-20010904/DTD/svg10.dtd">
<svg version="1.0" xmlns="http://www.w3.org/2000/svg"
 width="512.000000pt" height="512.000000pt" viewBox="0 0 512.000000 512.000000"
 preserveAspectRatio="xMidYMid meet">

<g transform="translate(0.000000,512.000000) scale(0.100000,-0.100000)"
fill="#000000" stroke="none">
<path d="M3896 4675 c-83 -21 -191 -76 -252 -127 -28 -24 -144 -138 -257 -254
l-206 -210 452 -452 452 -452 232 232 c251 254 297 313 340 442 23 69 27 98
27 196 -1 99 -4 126 -28 195 -69 201 -222 354 -416 416 -86 28 -260 35 -344
14z"/>
<path d="M1968 2873 l-907 -908 -312 -630 c-329 -665 -335 -680 -309 -760 16
-48 63 -101 113 -127 32 -16 53 -19 101 -16 56 5 113 31 686 316 l625 310 905
906 904 905 -94 98 c-71 74 -803 813 -805 813 0 0 -408 -408 -907 -907z"/>
<path d="M2459 827 c-24 -13 -57 -43 -74 -66 -27 -39 -30 -50 -30 -120 0 -68
3 -82 27 -117 15 -21 44 -50 65 -64 l37 -25 1036 0 1036 0 37 25 c21 14 50 43
65 64 24 35 27 49 27 116 0 67 -3 81 -27 116 -15 21 -44 50 -65 64 l-37 25
-1026 3 -1026 2 -45 -23z"/>
</g>
</svg>
