<?xml version="1.0" standalone="no"?>
<!DOCTYPE svg PUBLIC "-//W3C//DTD SVG 20010904//EN"
 "http://www.w3.org/TR/2001/REC-SVG-20010904/DTD/svg10.dtd">
<svg version="1.0" xmlns="http://www.w3.org/2000/svg"
 width="512.000000pt" height="512.000000pt" viewBox="0 0 512.000000 512.000000"
 preserveAspectRatio="xMidYMid meet">

<g transform="translate(0.000000,512.000000) scale(0.100000,-0.100000)"
fill="#000000" stroke="none">
<path d="M1161 4784 c-169 -45 -301 -180 -346 -351 -23 -86 -23 -3660 0 -3746
45 -173 178 -307 350 -352 51 -13 184 -15 967 -15 l908 0 0 428 c0 470 2 492
61 603 38 70 126 157 197 193 106 54 131 56 594 56 l428 0 0 1388 c0 1198 -2
1396 -15 1445 -45 173 -178 307 -350 352 -86 22 -2710 22 -2794 -1z m2127
-971 c58 -43 67 -66 70 -183 l4 -108 108 -4 c91 -2 113 -6 136 -24 53 -39 69
-71 69 -134 0 -63 -16 -95 -69 -134 -23 -18 -45 -22 -136 -24 l-108 -4 -4
-108 c-3 -117 -12 -140 -72 -184 -39 -29 -133 -29 -172 0 -60 44 -69 67 -72
184 l-4 108 -108 4 c-117 3 -140 12 -184 72 -29 39 -29 133 0 172 44 60 67 69
185 72 l109 4 0 93 c0 128 22 178 95 211 40 19 119 12 153 -13z m-1062 -312
c23 -10 50 -32 61 -47 11 -16 91 -213 178 -439 86 -225 216 -558 287 -740 143
-364 147 -380 95 -449 -66 -85 -189 -86 -251 -2 -13 17 -56 118 -97 223 l-74
193 -265 0 -265 0 -74 -193 c-40 -105 -84 -208 -96 -228 -81 -127 -285 -65
-285 88 0 31 74 232 287 780 157 406 295 751 306 767 22 31 88 66 127 66 14 0
43 -9 66 -19z"/>
<path d="M2089 2737 l-66 -172 68 -3 c38 -2 100 -2 138 0 l68 3 -66 172 c-36
95 -68 173 -71 173 -3 0 -35 -78 -71 -173z"/>
<path d="M3455 1266 c-41 -18 -83 -69 -90 -109 -3 -18 -4 -191 -3 -385 l3
-352 430 430 430 430 -370 0 c-285 -1 -377 -4 -400 -14z"/>
</g>
</svg>
