<?xml version="1.0" standalone="no"?>
<!DOCTYPE svg PUBLIC "-//W3C//DTD SVG 20010904//EN"
 "http://www.w3.org/TR/2001/REC-SVG-20010904/DTD/svg10.dtd">
<svg version="1.0" xmlns="http://www.w3.org/2000/svg"
 width="512.000000pt" height="512.000000pt" viewBox="0 0 512.000000 512.000000"
 preserveAspectRatio="xMidYMid meet">

<g transform="translate(0.000000,512.000000) scale(0.100000,-0.100000)"
fill="#000000" stroke="none">
<path d="M2525 5111 c-11 -5 -29 -19 -40 -31 -19 -21 -20 -38 -23 -471 l-3
-449 101 0 100 0 0 125 0 125 335 0 c380 0 394 2 421 65 8 20 12 46 8 58 -3
12 -38 65 -78 117 -40 52 -75 101 -79 107 -5 8 23 53 71 116 43 57 82 115 86
130 8 34 -6 69 -40 96 -26 21 -33 21 -433 20 -223 0 -415 -4 -426 -8z"/>
<path d="M1855 3430 c-380 -324 -691 -594 -693 -599 -3 -9 152 -193 166 -199
4 -1 246 201 537 449 292 249 556 474 588 500 47 40 65 49 96 49 41 0 53 -10
975 -800 125 -107 231 -196 235 -198 10 -3 176 184 176 198 0 9 -1375 1190
-1386 1190 -3 0 -315 -265 -694 -590z"/>
<path d="M2078 3011 l-467 -396 -1 -1307 0 -1308 215 0 215 0 0 528 0 529 26
24 26 24 459 0 458 0 23 -23 23 -23 3 -529 3 -530 204 0 205 0 0 1308 0 1308
-397 340 c-219 186 -427 364 -463 395 l-65 57 -467 -397z m956 -1187 c40 -41
39 -96 -5 -136 l-29 -28 -456 0 -456 0 -29 29 c-21 22 -29 39 -29 66 0 27 8
44 29 66 l29 29 460 0 459 0 27 -26z"/>
<path d="M263 2029 c-30 -15 -48 -33 -62 -63 -21 -42 -21 -55 -21 -1004 l0
-962 615 0 615 0 0 1025 0 1025 -552 0 c-540 0 -554 -1 -595 -21z m356 -404
c23 -22 26 -34 29 -125 8 -181 -16 -240 -97 -240 -84 0 -104 43 -99 215 l3
127 34 30 c28 25 39 29 69 24 20 -3 47 -17 61 -31z m488 13 c30 -25 43 -76 43
-171 0 -120 -6 -151 -38 -182 -33 -34 -90 -34 -129 -1 -28 24 -28 26 -31 154
-4 142 7 188 51 211 26 13 83 7 104 -11z m-494 -824 c32 -32 41 -82 35 -215
-4 -99 -4 -102 -36 -130 -36 -32 -69 -36 -111 -14 -40 20 -51 61 -51 192 0
154 20 192 101 193 26 0 44 -7 62 -26z m500 0 c32 -32 41 -82 35 -215 -4 -99
-4 -102 -36 -130 -36 -32 -69 -36 -111 -14 -40 20 -51 61 -51 192 0 154 20
192 101 193 26 0 44 -7 62 -26z"/>
<path d="M3670 1025 l0 -1025 635 0 635 0 0 962 c0 951 0 962 -21 1004 -15 31
-32 48 -63 63 -41 20 -57 21 -614 21 l-572 0 0 -1025z m444 624 c46 -22 58
-66 54 -211 -3 -128 -3 -130 -31 -154 -58 -50 -146 -19 -161 57 -13 68 -7 223
12 259 26 53 75 72 126 49z m516 -24 c23 -23 25 -34 28 -135 3 -61 1 -126 -3
-146 -21 -113 -169 -114 -190 -1 -4 19 -5 84 -3 145 2 93 6 113 23 132 42 47
101 48 145 5z m-509 -795 c38 -21 49 -62 49 -183 0 -131 -11 -172 -51 -192
-42 -22 -75 -18 -111 14 -32 28 -32 31 -36 130 -6 133 3 183 35 215 28 28 78
35 114 16z m502 -16 c34 -34 40 -69 35 -205 -3 -111 -3 -111 -36 -140 -51 -46
-118 -34 -147 26 -18 39 -21 237 -4 282 24 65 105 85 152 37z"/>
<path d="M2230 455 l0 -455 315 0 315 0 0 455 0 455 -315 0 -315 0 0 -455z"/>
</g>
</svg>
